<svg width="100" height="100" viewBox="0 0 100 100" fill="none" xmlns="http://www.w3.org/2000/svg">
<g clip-path="url(#clip0_1_568)">
<path d="M3.98861 -14.315L-6.44645 -16.6499L-13.7543 -8.69737L-21.0565 -0.750975L-17.8549 9.46803C-16.0902 15.0818 -14.6168 19.7093 -14.5735 19.749C-14.5302 19.7888 -9.78875 20.8724 -4.04616 22.1574L6.39459 24.4861L13.7025 16.5336L21.0103 8.58098L17.8031 -1.63184C16.0445 -7.23991 14.5649 -11.8731 14.5154 -11.9185C14.466 -11.964 9.7307 -13.0419 3.98861 -14.315ZM11.7259 -2.67681L11.3341 3.80669L8.26216 1.01802C6.58062 -0.51579 3.83494 -3.03888 2.16477 -4.58506L-0.87306 -7.41084L5.58371 -8.35527C9.13433 -8.86785 12.06 -9.25893 12.0796 -9.21815C12.1048 -9.18355 11.9439 -6.24047 11.7259 -2.67681ZM1.7092 -10.4443C-0.730476 -10.0857 -2.77488 -9.79721 -2.84089 -9.81225C-2.92446 -9.82061 -3.15945 -10.4586 -3.50224 -11.5378C-3.79772 -12.4822 -4.03973 -13.2863 -4.04174 -13.3338C-4.05093 -13.4107 6.12324 -11.2014 6.13244 -11.1245C6.13344 -11.1008 4.14319 -10.7968 1.7092 -10.4443ZM16.0667 1.58583C16.9054 4.2727 17.5568 6.4682 17.5094 6.4702C17.4557 6.46652 16.6341 6.2932 15.668 6.07842C14.5519 5.82838 13.9083 5.64754 13.8929 5.56497C13.8575 5.42976 14.3915 -3.45514 14.437 -3.50461C14.454 -3.52317 14.4798 -3.4767 14.5003 -3.41219C14.5271 -3.34199 15.2285 -1.08917 16.0667 1.58583ZM-5.90464 -10.4377C-5.66414 -9.6692 -5.48748 -9.005 -5.52158 -8.9679C-5.57841 -8.90606 -13.5991 -4.882 -13.6821 -4.87849C-13.7059 -4.87749 -12.1271 -6.62037 -10.1666 -8.75383L-6.59791 -12.6374L-6.47406 -12.2384C-6.4057 -12.0273 -6.15133 -11.2119 -5.90464 -10.4377ZM11.6878 14.8533L9.87356 16.7904L11.5555 12.5646C12.4854 10.2369 13.272 8.31351 13.3128 8.29395C13.3535 8.2744 14.1927 8.44104 15.1768 8.66099L16.9769 9.06046L15.2395 10.9884C14.2796 12.0453 12.6828 13.783 11.6878 14.8533ZM9.64667 6.21393C9.48254 6.26841 5.70461 7.45037 1.26399 8.84458C-3.17664 10.2388 -6.82086 11.3497 -6.83991 11.3208C-6.87184 11.2686 -4.35303 -0.160872 -3.18489 -5.29225L-3.05887 -5.82658L3.44048 0.145876L9.94601 6.12401L9.64667 6.21393ZM-7.56087 2.27493C-8.55068 6.70334 -9.37184 10.34 -9.38371 10.3405C-9.42549 10.3364 -17.5024 0.0855609 -17.5106 0.0324119C-17.5074 -0.0331051 -5.83648 -5.86972 -5.78701 -5.82426C-5.76846 -5.80721 -6.57157 -2.16534 -7.56087 2.27493ZM7.78639 14.9409C6.46517 18.2777 5.35002 21.0055 5.32061 21.0127C5.26696 21.009 -5.62854 13.8255 -5.63004 13.7899C-5.63205 13.7424 10.1367 8.80854 10.1738 8.84263C10.1923 8.85968 9.11949 11.6035 7.78639 14.9409ZM-13.1631 9.79882C-11.6564 11.6966 -10.4305 13.2794 -10.429 13.315C-10.4275 13.3506 -11.0066 13.9933 -11.7174 14.7544L-13.0146 16.1287L-14.5336 11.2654C-15.3718 8.59042 -16.0866 6.3025 -16.1277 6.17347L-16.2028 5.94483L-16.0457 6.14623C-15.9576 6.26138 -14.658 7.90049 -13.1631 9.79882ZM-0.915201 20.1528C-1.04724 20.1227 -3.38729 19.6034 -6.12346 18.9938L-11.0976 17.8903L-9.83752 16.4819C-9.13906 15.7094 -8.54756 15.0781 -8.51196 15.0766C-8.46449 15.0746 -0.988739 19.9597 -0.748567 20.1576C-0.705781 20.1855 -0.783164 20.1828 -0.915201 20.1528Z" fill="#E87080"/>
<path d="M103.989 -14.315L93.5535 -16.6499L86.2457 -8.69737L78.9435 -0.750975L82.1451 9.46803C83.9098 15.0818 85.3832 19.7093 85.4265 19.749C85.4698 19.7888 90.2113 20.8724 95.9538 22.1574L106.395 24.4861L113.702 16.5336L121.01 8.58098L117.803 -1.63184C116.045 -7.23991 114.565 -11.8731 114.515 -11.9185C114.466 -11.964 109.731 -13.0419 103.989 -14.315ZM111.726 -2.67681L111.334 3.80669L108.262 1.01802C106.581 -0.51579 103.835 -3.03888 102.165 -4.58506L99.1269 -7.41084L105.584 -8.35527C109.134 -8.86785 112.06 -9.25893 112.08 -9.21815C112.105 -9.18355 111.944 -6.24047 111.726 -2.67681ZM101.709 -10.4443C99.2695 -10.0857 97.2251 -9.79721 97.1591 -9.81225C97.0755 -9.82061 96.8406 -10.4586 96.4978 -11.5378C96.2023 -12.4822 95.9603 -13.2863 95.9583 -13.3338C95.9491 -13.4107 106.123 -11.2014 106.132 -11.1245C106.133 -11.1008 104.143 -10.7968 101.709 -10.4443ZM116.067 1.58583C116.905 4.2727 117.557 6.4682 117.509 6.4702C117.456 6.46652 116.634 6.2932 115.668 6.07842C114.552 5.82838 113.908 5.64754 113.893 5.56497C113.857 5.42976 114.392 -3.45514 114.437 -3.50461C114.454 -3.52317 114.48 -3.4767 114.5 -3.41219C114.527 -3.34199 115.229 -1.08917 116.067 1.58583ZM94.0954 -10.4377C94.3359 -9.6692 94.5125 -9.005 94.4784 -8.9679C94.4216 -8.90606 86.4009 -4.882 86.3179 -4.87849C86.2941 -4.87749 87.8729 -6.62037 89.8334 -8.75383L93.4021 -12.6374L93.5259 -12.2384C93.5943 -12.0273 93.8487 -11.2119 94.0954 -10.4377ZM111.688 14.8533L109.874 16.7904L111.555 12.5646C112.485 10.2369 113.272 8.31351 113.313 8.29395C113.354 8.2744 114.193 8.44104 115.177 8.66099L116.977 9.06046L115.239 10.9884C114.28 12.0453 112.683 13.783 111.688 14.8533ZM109.647 6.21393C109.483 6.26841 105.705 7.45037 101.264 8.84458C96.8234 10.2388 93.1791 11.3497 93.1601 11.3208C93.1282 11.2686 95.647 -0.160872 96.8151 -5.29225L96.9411 -5.82658L103.44 0.145876L109.946 6.12401L109.647 6.21393ZM92.4391 2.27493C91.4493 6.70334 90.6282 10.34 90.6163 10.3405C90.5745 10.3364 82.4976 0.0855609 82.4894 0.0324119C82.4926 -0.0331051 94.1635 -5.86972 94.213 -5.82426C94.2315 -5.80721 93.4284 -2.16534 92.4391 2.27493ZM107.786 14.9409C106.465 18.2777 105.35 21.0055 105.321 21.0127C105.267 21.009 94.3715 13.8255 94.37 13.7899C94.368 13.7424 110.137 8.80854 110.174 8.84263C110.192 8.85968 109.119 11.6035 107.786 14.9409ZM86.8369 9.79882C88.3436 11.6966 89.5695 13.2794 89.571 13.315C89.5725 13.3506 88.9934 13.9933 88.2826 14.7544L86.9854 16.1287L85.4664 11.2654C84.6282 8.59042 83.9134 6.3025 83.8723 6.17347L83.7972 5.94483L83.9543 6.14623C84.0424 6.26138 85.342 7.90049 86.8369 9.79882ZM99.0848 20.1528C98.9528 20.1227 96.6127 19.6034 93.8765 18.9938L88.9024 17.8903L90.1625 16.4819C90.8609 15.7094 91.4524 15.0781 91.488 15.0766C91.5355 15.0746 99.0113 19.9597 99.2514 20.1576C99.2942 20.1855 99.2168 20.1828 99.0848 20.1528Z" fill="#E87080"/>
<path d="M103.989 85.685L93.5535 83.3501L86.2457 91.3026L78.9435 99.249L82.1451 109.468C83.9098 115.082 85.3832 119.709 85.4265 119.749C85.4698 119.789 90.2113 120.872 95.9538 122.157L106.395 124.486L113.702 116.534L121.01 108.581L117.803 98.3682C116.045 92.7601 114.565 88.1269 114.515 88.0815C114.466 88.036 109.731 86.9581 103.989 85.685ZM111.726 97.3232L111.334 103.807L108.262 101.018C106.581 99.4842 103.835 96.9611 102.165 95.4149L99.1269 92.5892L105.584 91.6447C109.134 91.1321 112.06 90.7411 112.08 90.7819C112.105 90.8165 111.944 93.7595 111.726 97.3232ZM101.709 89.5557C99.2695 89.9143 97.2251 90.2028 97.1591 90.1878C97.0755 90.1794 96.8406 89.5414 96.4978 88.4622C96.2023 87.5178 95.9603 86.7137 95.9583 86.6662C95.9491 86.5893 106.123 88.7986 106.132 88.8755C106.133 88.8992 104.143 89.2032 101.709 89.5557ZM116.067 101.586C116.905 104.273 117.557 106.468 117.509 106.47C117.456 106.467 116.634 106.293 115.668 106.078C114.552 105.828 113.908 105.648 113.893 105.565C113.857 105.43 114.392 96.5449 114.437 96.4954C114.454 96.4768 114.48 96.5233 114.5 96.5878C114.527 96.658 115.229 98.9108 116.067 101.586ZM94.0954 89.5623C94.3359 90.3308 94.5125 90.995 94.4784 91.0321C94.4216 91.0939 86.4009 95.118 86.3179 95.1215C86.2941 95.1225 87.8729 93.3796 89.8334 91.2462L93.4021 87.3626L93.5259 87.7616C93.5943 87.9727 93.8487 88.7881 94.0954 89.5623ZM111.688 114.853L109.874 116.79L111.555 112.565C112.485 110.237 113.272 108.314 113.313 108.294C113.354 108.274 114.193 108.441 115.177 108.661L116.977 109.06L115.239 110.988C114.28 112.045 112.683 113.783 111.688 114.853ZM109.647 106.214C109.483 106.268 105.705 107.45 101.264 108.845C96.8234 110.239 93.1791 111.35 93.1601 111.321C93.1282 111.269 95.647 99.8391 96.8151 94.7078L96.9411 94.1734L103.44 100.146L109.946 106.124L109.647 106.214ZM92.4391 102.275C91.4493 106.703 90.6282 110.34 90.6163 110.341C90.5745 110.336 82.4976 100.086 82.4894 100.032C82.4926 99.9669 94.1635 94.1303 94.213 94.1757C94.2315 94.1928 93.4284 97.8347 92.4391 102.275ZM107.786 114.941C106.465 118.278 105.35 121.006 105.321 121.013C105.267 121.009 94.3715 113.825 94.37 113.79C94.368 113.742 110.137 108.809 110.174 108.843C110.192 108.86 109.119 111.604 107.786 114.941ZM86.8369 109.799C88.3436 111.697 89.5695 113.279 89.571 113.315C89.5725 113.351 88.9934 113.993 88.2826 114.754L86.9854 116.129L85.4664 111.265C84.6282 108.59 83.9134 106.302 83.8723 106.173L83.7972 105.945L83.9543 106.146C84.0424 106.261 85.342 107.9 86.8369 109.799ZM99.0848 120.153C98.9528 120.123 96.6127 119.603 93.8765 118.994L88.9024 117.89L90.1625 116.482C90.8609 115.709 91.4524 115.078 91.488 115.077C91.5355 115.075 99.0113 119.96 99.2514 120.158C99.2942 120.186 99.2168 120.183 99.0848 120.153Z" fill="#E87080"/>
<path d="M3.98861 85.685L-6.44645 83.3501L-13.7543 91.3026L-21.0565 99.249L-17.8549 109.468C-16.0902 115.082 -14.6168 119.709 -14.5735 119.749C-14.5302 119.789 -9.78875 120.872 -4.04616 122.157L6.39459 124.486L13.7025 116.534L21.0103 108.581L17.8031 98.3682C16.0445 92.7601 14.5649 88.1269 14.5154 88.0815C14.466 88.036 9.7307 86.9581 3.98861 85.685ZM11.7259 97.3232L11.3341 103.807L8.26216 101.018C6.58062 99.4842 3.83494 96.9611 2.16477 95.4149L-0.87306 92.5892L5.58371 91.6447C9.13433 91.1321 12.06 90.7411 12.0796 90.7819C12.1048 90.8165 11.9439 93.7595 11.7259 97.3232ZM1.7092 89.5557C-0.730476 89.9143 -2.77488 90.2028 -2.84089 90.1878C-2.92446 90.1794 -3.15945 89.5414 -3.50224 88.4622C-3.79772 87.5178 -4.03973 86.7137 -4.04174 86.6662C-4.05093 86.5893 6.12324 88.7986 6.13244 88.8755C6.13344 88.8992 4.14319 89.2032 1.7092 89.5557ZM16.0667 101.586C16.9054 104.273 17.5568 106.468 17.5094 106.47C17.4557 106.467 16.6341 106.293 15.668 106.078C14.5519 105.828 13.9083 105.648 13.8929 105.565C13.8575 105.43 14.3915 96.5449 14.437 96.4954C14.454 96.4768 14.4798 96.5233 14.5003 96.5878C14.5271 96.658 15.2285 98.9108 16.0667 101.586ZM-5.90464 89.5623C-5.66414 90.3308 -5.48748 90.995 -5.52158 91.0321C-5.57841 91.0939 -13.5991 95.118 -13.6821 95.1215C-13.7059 95.1225 -12.1271 93.3796 -10.1666 91.2462L-6.59791 87.3626L-6.47406 87.7616C-6.4057 87.9727 -6.15133 88.7881 -5.90464 89.5623ZM11.6878 114.853L9.87356 116.79L11.5555 112.565C12.4854 110.237 13.272 108.314 13.3128 108.294C13.3535 108.274 14.1927 108.441 15.1768 108.661L16.9769 109.06L15.2395 110.988C14.2796 112.045 12.6828 113.783 11.6878 114.853ZM9.64667 106.214C9.48254 106.268 5.70461 107.45 1.26399 108.845C-3.17664 110.239 -6.82086 111.35 -6.83991 111.321C-6.87184 111.269 -4.35303 99.8391 -3.18489 94.7078L-3.05887 94.1734L3.44048 100.146L9.94601 106.124L9.64667 106.214ZM-7.56087 102.275C-8.55068 106.703 -9.37184 110.34 -9.38371 110.341C-9.42549 110.336 -17.5024 100.086 -17.5106 100.032C-17.5074 99.9669 -5.83648 94.1303 -5.78701 94.1757C-5.76846 94.1928 -6.57157 97.8347 -7.56087 102.275ZM7.78639 114.941C6.46517 118.278 5.35002 121.006 5.32061 121.013C5.26696 121.009 -5.62854 113.825 -5.63004 113.79C-5.63205 113.742 10.1367 108.809 10.1738 108.843C10.1923 108.86 9.11949 111.604 7.78639 114.941ZM-13.1631 109.799C-11.6564 111.697 -10.4305 113.279 -10.429 113.315C-10.4275 113.351 -11.0066 113.993 -11.7174 114.754L-13.0146 116.129L-14.5336 111.265C-15.3718 108.59 -16.0866 106.302 -16.1277 106.173L-16.2028 105.945L-16.0457 106.146C-15.9576 106.261 -14.658 107.9 -13.1631 109.799ZM-0.915201 120.153C-1.04724 120.123 -3.38729 119.603 -6.12346 118.994L-11.0976 117.89L-9.83752 116.482C-9.13906 115.709 -8.54756 115.078 -8.51196 115.077C-8.46449 115.075 -0.988739 119.96 -0.748567 120.158C-0.705781 120.186 -0.783164 120.183 -0.915201 120.153Z" fill="#E87080"/>
<path d="M54.932 34.7416L44.4969 32.4067L37.1891 40.3592L29.8869 48.3056L33.0884 58.5246C34.8532 64.1384 36.3266 68.7659 36.3699 68.8056C36.4132 68.8454 41.1546 69.929 46.8972 71.214L57.338 73.5427L64.6459 65.5902L71.9537 57.6376L68.7465 47.4248C66.9879 41.8167 65.5083 37.1835 65.4588 37.1381C65.4094 37.0926 60.6741 36.0147 54.932 34.7416ZM62.6693 46.3798L62.2775 52.8633L59.2055 50.0746C57.524 48.5408 54.7783 46.0177 53.1082 44.4715L50.0703 41.6458L56.5271 40.7013C60.0777 40.1888 63.0034 39.7977 63.023 39.8385C63.0482 39.8731 62.8872 42.8161 62.6693 46.3798ZM52.6526 38.6123C50.2129 38.9709 48.1685 39.2594 48.1025 39.2444C48.0189 39.236 47.7839 38.598 47.4412 37.5189C47.1457 36.5744 46.9037 35.7703 46.9017 35.7228C46.8925 35.6459 57.0666 37.8552 57.0758 37.9321C57.0768 37.9558 55.0866 38.2598 52.6526 38.6123ZM67.0101 50.6424C67.8488 53.3293 68.5002 55.5248 68.4528 55.5268C68.3991 55.5231 67.5775 55.3498 66.6114 55.135C65.4953 54.885 64.8517 54.7041 64.8363 54.6216C64.8009 54.4864 65.3349 45.6015 65.3804 45.552C65.3974 45.5334 65.4232 45.5799 65.4437 45.6444C65.4705 45.7146 66.1719 47.9674 67.0101 50.6424ZM45.0387 38.6189C45.2792 39.3874 45.4559 40.0516 45.4218 40.0887C45.365 40.1505 37.3443 44.1746 37.2612 44.1781C37.2375 44.1791 38.8163 42.4362 40.7768 40.3028L44.3455 36.4192L44.4693 36.8182C44.5377 37.0293 44.7921 37.8447 45.0387 38.6189ZM62.6312 63.9099L60.817 65.847L62.4989 61.6212C63.4288 59.2935 64.2154 57.3701 64.2562 57.3506C64.2969 57.331 65.1361 57.4976 66.1202 57.7176L67.9203 58.1171L66.1829 60.045C65.223 61.1019 63.6262 62.8396 62.6312 63.9099ZM60.5901 55.2705C60.4259 55.325 56.648 56.507 52.2074 57.9012C47.7668 59.2954 44.1225 60.4063 44.1035 60.3774C44.0716 60.3253 46.5904 48.8957 47.7585 43.7644L47.8845 43.23L54.3839 49.2025L60.8894 55.1806L60.5901 55.2705ZM43.3825 51.3315C42.3927 55.76 41.5716 59.3966 41.5597 59.3971C41.5179 59.393 33.441 49.1422 33.4328 49.089C33.436 49.0235 45.1069 43.1869 45.1564 43.2324C45.1749 43.2494 44.3718 46.8913 43.3825 51.3315ZM58.7298 63.9975C57.4086 67.3343 56.2934 70.0621 56.264 70.0693C56.2103 70.0656 45.3149 62.8821 45.3133 62.8465C45.3113 62.799 61.0801 57.8651 61.1172 57.8992C61.1357 57.9163 60.0629 60.6601 58.7298 63.9975ZM37.7803 58.8554C39.287 60.7533 40.5129 62.336 40.5144 62.3716C40.5159 62.4072 39.9368 63.0499 39.2259 63.811L37.9288 65.1853L36.4097 60.322C35.5716 57.647 34.8568 55.3591 34.8156 55.2301L34.7406 55.0014L34.8977 55.2028C34.9858 55.318 36.2854 56.9571 37.7803 58.8554ZM50.0282 69.2094C49.8962 69.1793 47.5561 68.66 44.8199 68.0504L39.8458 66.947L41.1059 65.5385C41.8043 64.766 42.3958 64.1348 42.4314 64.1333C42.4789 64.1313 49.9547 69.0163 50.1948 69.2142C50.2376 69.2421 50.1602 69.2395 50.0282 69.2094Z" fill="#E87080"/>
</g>
<defs>
<clipPath id="clip0_1_568">
<rect width="100" height="100" fill="white"/>
</clipPath>
</defs>
</svg>
